<?xml version="1.0" standalone="no"?>
<!DOCTYPE svg PUBLIC "-//W3C//DTD SVG 20010904//EN"
 "http://www.w3.org/TR/2001/REC-SVG-20010904/DTD/svg10.dtd">
<svg version="1.0" xmlns="http://www.w3.org/2000/svg"
 width="1181.000000pt" height="873.000000pt" viewBox="0 0 1181.000000 873.000000"
 preserveAspectRatio="xMidYMid meet">
<metadata>
Created by potrace 1.16, written by Peter Selinger 2001-2019
</metadata>
<g transform="translate(0.000000,873.000000) scale(0.100000,-0.100000)"
fill="#000000" stroke="none">
<path d="M4647 8683 c-4 -3 -7 -307 -7 -675 l0 -668 -1477 -2 -1478 -3 0
-2560 0 -2560 1358 -3 1357 -2 0 -572 0 -572 508 -512 507 -511 585 -2 586 -1
507 514 c478 486 507 517 507 550 l0 36 1145 0 1144 0 3 -57 3 -58 115 0 115
0 0 3155 0 3155 -1080 0 -1080 0 0 -110 0 -110 107 -3 108 -3 2 -412 3 -412
60 0 60 0 3 308 2 307 800 0 800 0 0 -885 0 -885 -473 0 c-355 0 -476 -3 -485
-12 -7 -7 -12 -27 -12 -45 l0 -33 -315 0 -315 0 0 298 c0 218 -3 301 -12 310
-16 16 -93 15 -107 -2 -8 -9 -10 -148 -9 -497 l3 -484 853 -3 852 -2 0 -1045
0 -1045 -607 -2 -608 -3 0 -105 0 -105 608 -3 607 -2 0 -545 0 -545 -1145 0
-1145 0 0 545 0 545 263 2 262 3 0 105 0 105 -377 3 -378 2 0 1360 0 1359 43
3 42 3 0 60 0 60 -164 3 c-115 2 -168 -1 -178 -9 -10 -9 -13 -29 -11 -68 l3
-56 68 -3 67 -3 0 -2039 0 -2038 -407 -401 -407 -401 -424 0 -425 0 -406 402
-406 402 -5 696 -5 695 -112 3 -113 3 0 1339 0 1340 908 2 907 3 3 53 c5 81 2
82 -159 82 l-138 0 -3 48 -3 47 -415 0 -415 0 -3 -47 -3 -48 -393 0 c-291 0
-395 -3 -404 -12 -9 -9 -12 -339 -12 -1425 l0 -1413 -1185 0 -1185 0 0 1810 0
1810 183 2 182 3 0 55 0 55 -182 3 -183 2 0 400 0 400 380 0 380 0 2 -457 3
-458 803 -3 802 -2 0 -58 c0 -32 5 -63 12 -70 17 -17 93 -15 107 2 8 9 11 52
9 127 l-3 114 -827 3 -828 2 0 400 0 400 765 0 765 0 0 -153 c0 -106 4 -157
12 -165 7 -7 30 -12 53 -12 23 0 46 5 53 12 8 8 12 59 12 165 l0 153 168 2
167 3 0 80 0 80 -42 3 -43 3 0 595 0 594 575 0 575 0 0 -473 c0 -355 3 -476
12 -485 8 -8 50 -12 125 -12 l113 0 0 -110 0 -110 -323 0 c-238 0 -326 -3
-335 -12 -17 -17 -16 -133 2 -147 10 -8 231 -10 817 -9 l804 3 0 110 0 110
-317 3 -318 2 -2 673 -3 672 -926 3 c-509 1 -929 -1 -932 -5z m1843 -688 l0
-675 320 0 320 0 0 -95 0 -95 -797 2 -798 3 0 60 0 60 333 3 332 2 0 130 0
129 -122 3 -123 3 -5 480 -5 480 -590 0 -590 0 -3 -612 -2 -613 45 0 45 0 0
-65 0 -65 -170 0 -170 0 -2 -162 -3 -163 -40 0 -40 0 -3 163 -2 162 -783 -2
-782 -3 0 -415 0 -415 828 -3 828 -2 -3 -108 -3 -107 -40 0 -40 0 -5 65 -5 65
-802 3 -803 2 0 460 0 460 -397 -2 -398 -3 0 -415 0 -415 183 -3 182 -2 0 -40
0 -40 -182 -2 -183 -3 0 -1825 0 -1825 260 -5 260 -5 0 -155 0 -155 -418 -3
-417 -2 0 2545 0 2545 1480 0 1480 0 0 675 0 675 915 0 915 0 0 -675z m3620
-3815 l0 -3140 -100 0 -100 0 -2 662 -3 663 -607 3 -608 2 0 90 0 90 608 2
607 3 0 1060 0 1060 -122 3 -122 3 -3 97 -3 97 -87 3 -88 3 0 -101 0 -100
-640 0 -640 0 2 478 3 477 40 0 40 0 3 -307 2 -308 335 0 334 0 3 43 3 42 483
3 482 2 -2 903 -3 902 -815 0 -815 0 -3 -307 -2 -308 -45 0 -45 0 0 415 0 415
-110 0 -110 0 0 95 0 95 1065 0 1065 0 0 -3140z m-4078 1273 l3 -48 145 -5
145 -5 3 -47 3 -48 -908 -2 -908 -3 0 -1355 0 -1355 113 -3 112 -3 0 -687 0
-687 202 -202 202 -202 -110 -114 -109 -114 -252 251 -253 251 0 577 0 578
-215 0 -215 0 0 160 0 160 215 0 215 0 2 1423 3 1422 400 5 400 5 3 48 3 47
399 0 399 0 3 -47z m1408 -98 l0 -45 -45 0 -45 0 0 -1380 0 -1380 135 0 135 0
0 -89 c0 -80 -2 -89 -20 -94 -20 -5 -20 -14 -20 -649 l0 -643 -250 -251 -249
-251 -111 112 -112 112 201 198 201 198 -2 2051 -3 2051 -67 3 -68 3 0 43 c0
23 3 46 7 49 3 4 75 7 160 7 l153 0 0 -45z m2200 -580 l0 -95 -75 0 -75 0 0
88 c0 49 3 92 7 95 3 4 37 7 75 7 l68 0 0 -95z m-5670 -2385 l0 -160 -707 2
-708 3 -3 145 c-1 79 0 150 2 157 4 10 142 13 711 13 l705 0 0 -160z m4140 70
l0 -90 -235 0 -235 0 0 90 0 90 235 0 235 0 0 -90z m1780 -1260 l0 -40 -1150
0 -1150 0 0 40 0 40 1150 0 1150 0 0 -40z m-4525 -620 l200 -200 435 0 435 0
202 202 203 203 115 -115 115 -115 -247 -247 -248 -248 -576 0 -576 0 -243
251 -243 250 109 110 c60 60 111 109 114 109 3 0 95 -90 205 -200z"/>
</g>
</svg>
